PathFileType	4	(X/Y/Z)	C:/Users/opensim2020/Desktop/walking_exp_matlab/subject03_walking05_straight_02.trc	
DataRate	CameraRate	NumFrames	NumMarkers	Units	OrigDataRate	OrigDataStartFrame	OrigNumFrames	
100.00	100.00	4	45	mm	100.00	1697	252	
Frame#	Time	LFHD			RFHD			LBHD			RBHD			C7			T10			CLAV			STRN			RBAK			LSHO			LUPA			LELB			LFRM			LWRA			LWRB			LFIN			RSHO			RUPA			RELB			RFRM			RWRA			RWRB			RFIN			LASI			RASI			LPSI			RPSI			LTHI			LKNE			LTIB			LANK			LHEE			LTOE			RTHI			RKNE			RTIB			RANK			RHEE			RTOE			*39			*40			*41			*42			*43			*44			
		X1	Y1	Z1	X2	Y2	Z2	X3	Y3	Z3	X4	Y4	Z4	X5	Y5	Z5	X6	Y6	Z6	X7	Y7	Z7	X8	Y8	Z8	X9	Y9	Z9	X10	Y10	Z10	X11	Y11	Z11	X12	Y12	Z12	X13	Y13	Z13	X14	Y14	Z14	X15	Y15	Z15	X16	Y16	Z16	X17	Y17	Z17	X18	Y18	Z18	X19	Y19	Z19	X20	Y20	Z20	X21	Y21	Z21	X22	Y22	Z22	X23	Y23	Z23	X24	Y24	Z24	X25	Y25	Z25	X26	Y26	Z26	X27	Y27	Z27	X28	Y28	Z28	X29	Y29	Z29	X30	Y30	Z30	X31	Y31	Z31	X32	Y32	Z32	X33	Y33	Z33	X34	Y34	Z34	X35	Y35	Z35	X36	Y36	Z36	X37	Y37	Z37	X38	Y38	Z38	X39	Y39	Z39	X40	Y40	Z40	X41	Y41	Z41	X42	Y42	Z42	X43	Y43	Z43	X44	Y44	Z44	X45	Y45	Z45	

221	2.200	1505.06702	-851.69501	1617.60840	1372.14331	-839.42975	1620.31897	1513.07117	-722.44092	1577.89185	1381.96667	-714.99847	1580.07483	1449.58105	-684.32190	1415.74207	1446.75354	-663.21777	1097.91138	1453.25208	-806.17456	1340.70361	1465.99097	-854.98627	1178.60632	1353.26978	-639.10797	1234.54749	1605.66162	-754.37500	1379.24475	1678.82581	-774.21198	1187.26514	1691.15820	-807.77869	1069.40027	1687.50452	-882.44940	964.09015	1652.37036	-953.53442	870.77765	1699.55750	-926.16327	858.92572	1687.62683	-979.88330	794.90283	1291.57544	-765.50916	1361.70996	1222.34619	-760.39630	1137.64954	1211.77295	-771.16815	1024.79907	1214.31470	-783.69666	888.16998	1254.06421	-809.27228	792.40375	1208.72229	-779.33325	787.21796	1224.96277	-794.79639	713.91675	1582.00305	-823.43121	938.63947	1344.31909	-853.01416	945.90863	1510.25464	-668.40839	952.92004	1363.23547	-687.16199	967.86255	1636.47742	-782.28229	634.48090	1627.68640	-810.69946	455.47321	1606.31689	-659.89093	331.15173	1548.81140	-512.50757	192.01642	1501.43384	-468.51813	199.83641	1535.51465	-575.76373	55.00530	1309.85400	-824.36621	648.71771	1357.95813	-855.09381	472.79346	1362.46582	-823.33252	283.92059	1422.04053	-805.23669	71.67171	1472.36487	-759.75598	40.63170	1442.80859	-946.27954	37.72139	1461.06702	-767.67682	1681.50476															 
222	2.210	1504.53809	-861.30182	1617.77429	1371.58679	-849.11163	1620.25439	1512.59509	-732.09381	1577.83191	1381.50366	-724.61694	1579.80249	1449.16943	-693.67316	1415.95959	1446.41870	-672.28198	1097.97693	1453.21582	-815.55206	1340.54175	1465.87219	-864.08789	1178.33069	1352.26331	-648.36774	1234.90979	1605.83374	-763.51074	1378.52124	1678.42700	-781.94324	1185.91846	1690.92017	-815.44995	1067.76001	1687.84888	-887.38641	960.28094	1653.74255	-956.16132	865.19421	1700.53662	-927.95874	853.97070	1689.25684	-979.60693	788.39941	1291.31091	-775.65173	1361.16345	1221.80481	-772.16797	1137.29858	1210.82178	-783.80383	1024.51807	1213.77771	-798.03198	888.00916	1253.94080	-825.12329	793.23456	1208.53467	-795.15424	786.99152	1224.81372	-812.04175	714.24768	1581.32092	-833.24756	938.65375	1343.36523	-861.59222	945.99457	1510.70386	-677.10181	952.34351	1363.29016	-695.44244	967.76575	1637.25171	-797.40436	635.77051	1629.67737	-829.91016	457.64105	1608.57556	-680.07495	332.26553	1551.34167	-534.08826	191.48593	1503.66101	-489.52554	197.64412	1541.43408	-601.10327	56.59596	1309.83252	-831.70355	648.90515	1357.88000	-860.15698	472.71378	1362.50012	-825.97870	283.89868	1422.14734	-805.33997	71.78741	1472.37427	-759.72345	40.58426	1442.86938	-946.31396	37.67768	1460.37048	-777.18750	1681.40759															 
223	2.220	1504.04431	-870.91235	1617.81934	1371.07556	-858.72101	1620.07922	1512.14026	-741.70587	1577.71863	1381.02600	-734.37415	1579.45349	1448.59302	-703.48859	1416.03845	1446.45642	-680.75647	1098.50940	1453.06677	-824.92285	1340.26453	1465.64697	-873.15118	1178.04065	1351.46631	-657.38568	1235.51636	1605.90088	-772.49841	1377.87585	1678.01123	-789.61694	1184.71448	1690.52393	-823.01563	1066.29163	1688.15320	-892.04663	956.55743	1654.49609	-957.22742	859.00488	1701.58667	-929.25281	849.18701	1690.87134	-978.95221	782.15210	1291.09619	-785.52301	1360.90039	1221.37585	-783.94971	1137.09656	1210.21765	-796.71826	1024.38623	1213.33142	-812.66095	887.96863	1253.80261	-840.77020	793.88611	1208.27087	-811.29114	787.05414	1224.62952	-829.85559	714.88586	1580.65430	-842.59430	938.72784	1342.24451	-869.78259	946.32098	1510.81006	-686.66553	951.53400	1363.45459	-703.67145	967.63660	1638.08948	-813.05060	636.98871	1631.25781	-849.07153	459.91122	1610.37878	-700.67682	332.86362	1554.12378	-556.71729	189.79205	1506.32092	-511.49265	193.95197	1546.36755	-627.87756	57.36849	1310.35461	-838.84882	648.89594	1358.07190	-865.44305	472.42294	1362.49353	-828.19684	283.78827	1422.36450	-805.48035	72.06274	1472.49414	-759.71521	40.69702	1442.98206	-946.32776	37.63065	1459.23816	-786.07587	1680.97009															 
224	2.230	1503.59265	-880.79456	1617.98926	1370.60229	-868.40613	1619.84851	1511.68372	-751.40582	1577.63123	1380.66101	-744.00696	1579.16956	1448.51831	-712.84277	1416.19604	1446.11267	-689.84863	1098.30225	1453.05762	-834.31970	1340.06555	1465.29895	-882.16425	1177.75806	1351.07251	-666.26624	1235.94690	1605.95837	-781.51385	1377.37305	1677.55774	-797.30133	1183.65466	1689.99768	-830.45844	1064.97021	1688.40161	-896.46387	953.16266	1655.51587	-959.39325	853.74481	1702.71326	-930.29614	844.76587	1692.58826	-977.96582	776.28113	1290.97913	-795.20905	1360.75000	1221.07263	-795.77539	1137.01135	1209.96082	-809.85687	1024.39075	1212.90540	-827.34406	888.27612	1253.79932	-856.44220	794.65527	1208.01807	-827.51196	787.38538	1224.25708	-847.51099	715.82800	1579.67822	-852.40833	939.24829	1341.05664	-877.91418	946.66254	1511.08691	-695.85345	951.36475	1363.68469	-711.99072	967.45056	1638.89807	-828.93561	637.91821	1632.41394	-868.11108	461.93277	1612.00732	-721.61938	332.87234	1556.76404	-580.12665	186.85509	1509.11707	-534.18616	188.83186	1550.55847	-656.18341	57.56541	1310.83228	-846.09717	648.68384	1358.23718	-870.93640	471.93579	1362.66589	-831.00391	283.64532	1422.37476	-805.67560	72.34848	1472.55286	-759.72058	40.89516	1443.06409	-946.36920	37.58418	1458.58069	-795.61426	1680.83582															 
